<?xml version="1.0" encoding="UTF-8" standalone="no"?>
<svg
   id="Layer_1"
   data-name="Layer 1"
   viewBox="0 0 24 24"
   width="512"
   height="512"
   version="1.1"
   sodipodi:docname="glass-cheers.svg"
   inkscape:version="1.4.2 (ebf0e940d0, 2025-05-08)"
   xmlns:inkscape="http://www.inkscape.org/namespaces/inkscape"
   xmlns:sodipodi="http://sodipodi.sourceforge.net/DTD/sodipodi-0.dtd"
   xmlns="http://www.w3.org/2000/svg"
   xmlns:svg="http://www.w3.org/2000/svg">
  <defs
     id="defs3" />
  <sodipodi:namedview
     id="namedview3"
     pagecolor="#ffffff"
     bordercolor="#000000"
     borderopacity="0.25"
     inkscape:showpageshadow="2"
     inkscape:pageopacity="0.0"
     inkscape:pagecheckerboard="0"
     inkscape:deskcolor="#d1d1d1"
     inkscape:zoom="2.3183594"
     inkscape:cx="256.21567"
     inkscape:cy="256"
     inkscape:window-width="2560"
     inkscape:window-height="1367"
     inkscape:window-x="1920"
     inkscape:window-y="0"
     inkscape:window-maximized="1"
     inkscape:current-layer="Layer_1" />
  <path
     d="M6.6,22.122l-1.923-.6L5.5,18.966A4.93,4.93,0,0,0,6.01,19,5,5,0,0,0,10.8,15.392L12,11.836l1.183,3.5a4.887,4.887,0,0,0,5.311,3.627l.8,2.556-1.93.6.594,1.91,5.779-1.8-.593-1.91-1.939.6-.8-2.56a4.965,4.965,0,0,0,2.4-5.762L20.957,7.132A3.023,3.023,0,0,0,17.28,5.11L13.428,6.184A2.966,2.966,0,0,0,12,7.078a2.966,2.966,0,0,0-1.428-.894L6.719,5.11A3.008,3.008,0,0,0,3.052,7.1L1.185,12.657a4.964,4.964,0,0,0,2.4,5.707l-.817,2.568-1.947-.6L.23,22.237l5.781,1.8Zm14.007-6.649a3,3,0,0,1-4.087,1.139,3.022,3.022,0,0,1-1.431-1.859L14.164,12h6.323l.4,1.194A2.979,2.979,0,0,1,20.611,15.473ZM13.357,8.592a.989.989,0,0,1,.608-.482l3.851-1.073A1,1,0,0,1,18.08,7a1.023,1.023,0,0,1,.972.739L19.813,10H13.49l-.215-.637A1,1,0,0,1,13.357,8.592ZM5.918,7a1.007,1.007,0,0,1,.265.036L10.035,8.11a1,1,0,0,1,.7,1.223L10.51,10H4.187l.77-2.29A1.008,1.008,0,0,1,5.918,7ZM3.1,13.245,3.514,12H9.836l-.944,2.8a3,3,0,0,1-5.5.669A2.949,2.949,0,0,1,3.1,13.245Z"
     id="path1" />
  <rect
     x="14.238"
     y="1.144"
     width="3.236"
     height="2"
     transform="translate(3.128 11.84) rotate(-45)"
     id="rect1" />
  <rect
     x="7.125"
     y="0.534"
     width="2"
     height="3.182"
     transform="translate(0.877 6.368) rotate(-45)"
     id="rect2" />
  <rect
     x="11"
     width="2"
     height="3"
     id="rect3" />
  <path
     style="fill:#ffffff;stroke-width:0"
     d="M 66.330131,493.28942 C 33.064104,482.91395 5.7287875,474.30728 5.584983,474.16347 c -0.2126344,-0.21263 11.689486,-39.48194 12.105829,-39.94141 0.06819,-0.0753 9.369275,2.71695 20.669073,6.20491 11.299797,3.48796 20.651919,6.23491 20.78249,6.10434 0.273513,-0.27351 17.420388,-54.00289 17.420388,-54.58642 0,-0.21245 -1.798207,-1.47423 -3.99602,-2.80395 -25.400624,-15.36794 -43.217586,-40.79802 -49.00855,-69.9497 -1.424887,-7.17288 -1.917676,-12.55455 -1.89585,-20.7043 0.03757,-14.02992 1.448463,-21.23197 7.94298,-40.54591 2.632522,-7.82881 12.05085,-35.8714 20.929616,-62.31687 9.506443,-28.31498 16.939889,-49.76445 18.081036,-52.17343 12.492731,-26.37242 42.102025,-41.16669 70.438255,-35.19445 4.72363,0.99557 88.0232,24.28669 91.28107,25.5228 8.28037,3.14177 15.24325,7.50843 21.40862,13.4261 l 4.25608,4.0851 4.21948,-4.04278 c 5.99318,-5.74221 12.29238,-9.78306 20.38314,-13.0755 3.86977,-1.57476 89.88756,-25.50408 94.66275,-26.33426 4.95144,-0.86083 14.91829,-0.8754 20.17509,-0.0295 20.99446,3.37835 39.41551,17.20949 48.17644,36.1725 1.96958,4.26315 42.62851,124.32957 43.99568,129.91985 6.91597,28.27934 1.34617,59.03476 -15.12837,83.53591 -8.29802,12.3409 -19.74275,23.32936 -32.37436,31.08359 -2.21406,1.35918 -4.26518,2.62085 -4.55801,2.80371 -0.74389,0.46455 16.36515,55.15933 17.20778,55.0104 0.31802,-0.0562 9.60399,-2.89757 20.63549,-6.31415 11.03151,-3.41658 20.09823,-6.17651 20.14826,-6.13318 0.33312,0.28861 12.48469,40.17563 12.2638,40.25546 -3.70658,1.33973 -122.3296,38.0182 -122.4775,37.87029 -0.48863,-0.48862 -12.50178,-39.71775 -12.23619,-39.95746 0.15941,-0.14388 9.21857,-3.02379 20.13146,-6.39981 10.91289,-3.37602 20.00149,-6.29089 20.19689,-6.4775 0.1954,-0.1866 -3.47936,-12.60553 -8.16613,-27.59762 l -8.52139,-27.25833 -3.26438,0.32945 c -4.77652,0.48207 -15.98225,0.34635 -20.94929,-0.25372 -31.07072,-3.7537 -58.03146,-20.41511 -75.40848,-46.60151 -4.02147,-6.06018 -9.31787,-17.05019 -11.53705,-23.93934 -4.971,-15.43179 -27.32549,-81.3075 -27.59117,-81.3075 -0.1682,0 -3.12815,8.39495 -6.57768,18.65544 -3.44953,10.26049 -9.86159,29.33108 -14.24902,42.3791 -4.38744,13.04802 -8.7858,25.56765 -9.77414,27.8214 -8.16562,18.62037 -22.19865,35.11198 -39.47577,46.3919 -18.65399,12.17886 -42.98768,18.75237 -63.17151,17.06516 -2.95461,-0.24699 -5.44854,-0.37253 -5.54209,-0.27899 -0.20054,0.20055 -17.291721,53.21135 -17.447827,54.117 -0.07902,0.45843 5.121557,2.25636 20.166477,6.97189 17.39619,5.4525 20.26214,6.46659 20.19672,7.14639 -0.0419,0.43572 -2.74723,9.47831 -6.01177,20.09466 -4.56571,14.84773 -6.09108,19.29531 -6.60952,19.27156 -0.3707,-0.017 -27.891651,-8.5199 -61.157679,-18.89537 z M 396.08418,361.63536 c 9.02409,-1.73957 18.86734,-6.04239 25.99631,-11.36386 7.49547,-5.59505 15.22182,-14.79947 19.40223,-23.1139 5.05042,-10.04474 7.36784,-22.09838 6.43916,-33.49215 -0.55297,-6.78427 -1.43748,-10.27728 -6.34284,-25.04877 L 437.38922,256 h -67.61795 c -37.18986,0 -67.61794,0.16521 -67.61794,0.36713 0,1.072 22.59606,67.47392 23.88307,70.18401 4.15189,8.74269 11.5542,17.64406 19.89789,23.92745 3.94653,2.97202 13.08177,7.65432 18.01277,9.23251 10.20735,3.26691 21.6255,3.95059 32.13712,1.92426 z m -255.25183,-0.16965 c 8.33701,-1.82818 16.81916,-5.47229 23.93934,-10.28485 4.95732,-3.35068 12.5889,-10.98933 16.01522,-16.03006 4.90888,-7.22183 6.07108,-10.16106 17.85693,-45.16022 6.16156,-18.29732 11.20283,-33.43108 11.20283,-33.63057 0,-0.19948 -30.40902,-0.31357 -67.57561,-0.25352 l -67.575609,0.10918 -4.26059,12.72452 c -5.027715,15.01556 -5.82204,18.09728 -6.34657,24.62252 -0.759261,9.44536 0.80764,20.01899 4.246041,28.65278 6.962463,17.48269 21.911137,31.50164 39.716218,37.24611 3.51618,1.13443 5.80451,1.66834 12.0775,2.81791 2.54162,0.46577 17.56134,-0.1246 20.7043,-0.8138 z m 86.24052,-155.8246 c 2.61322,-7.64963 2.76157,-8.29785 2.73933,-11.96967 -0.0294,-4.84789 -1.17265,-8.65663 -3.72116,-12.39676 -2.144,-3.14649 -6.11432,-6.33481 -9.43629,-7.57772 -4.79686,-1.79473 -86.10839,-24.20662 -88.78194,-24.47095 -7.72678,-0.76395 -16.38528,3.77877 -20.40206,10.70403 -0.85992,1.48256 -18.399141,52.6415 -18.399141,53.66717 0,0.0723 30.428641,0.13152 67.619211,0.13152 h 67.61921 z m 195.85552,7.93182 c 0,-0.803 -17.11798,-50.92565 -17.96692,-52.60842 -4.25868,-8.4415 -14.1883,-13.30235 -23.226,-11.36985 -7.37775,1.57756 -85.58566,23.68694 -88.06109,24.89487 -1.46072,0.71279 -3.71419,2.33754 -5.00771,3.61056 -4.45362,4.38303 -6.44717,9.30746 -6.41609,15.84891 0.0171,3.60798 0.209,4.43969 2.72892,11.83027 l 2.71047,7.94946 h 67.61921 c 37.19057,0 67.61921,-0.0701 67.61921,-0.1558 z"
     id="path3"
     transform="scale(0.046875)" />
  <path
     style="fill:#ffffff;stroke-width:0"
     d="M 313.90543,69.982964 299.13483,55.207713 323.39912,30.946276 347.66341,6.6848369 362.54085,21.566963 377.41829,36.449089 353.26661,60.60365 c -13.28342,13.285011 -24.25043,24.154564 -24.37113,24.154564 -0.1207,0 -6.86623,-6.648861 -14.99005,-14.77525 z"
     id="path4"
     transform="scale(0.046875)" />
  <path
     style="fill:#ffffff;stroke-width:0"
     d="M 234.86436,31.919124 V 0.21566976 H 256 277.13564 V 31.919124 63.622578 H 256 234.86436 Z"
     id="path5"
     transform="scale(0.046875)" />
  <path
     style="fill:#ffffff;stroke-width:0"
     d="m 158.30204,60.172297 -23.7203,-23.723234 14.87741,-14.8821 14.87741,-14.8821007 23.83298,23.8300737 23.83298,23.830073 -14.77061,14.775263 c -8.12383,8.126393 -14.86938,14.775263 -14.99009,14.775263 -0.12072,0 -10.89362,-10.675455 -23.93978,-23.723238 z"
     id="path6"
     transform="scale(0.046875)" />
</svg>
