<?xml version="1.0" encoding="UTF-8" standalone="no"?>
<svg
   id="Layer_1"
   data-name="Layer 1"
   viewBox="0 0 24 24"
   width="512"
   height="512"
   version="1.1"
   sodipodi:docname="hiking.svg"
   inkscape:version="1.4.2 (ebf0e940d0, 2025-05-08)"
   xmlns:inkscape="http://www.inkscape.org/namespaces/inkscape"
   xmlns:sodipodi="http://sodipodi.sourceforge.net/DTD/sodipodi-0.dtd"
   xmlns="http://www.w3.org/2000/svg"
   xmlns:svg="http://www.w3.org/2000/svg">
  <defs
     id="defs1" />
  <sodipodi:namedview
     id="namedview1"
     pagecolor="#ffffff"
     bordercolor="#000000"
     borderopacity="0.25"
     inkscape:showpageshadow="2"
     inkscape:pageopacity="0.0"
     inkscape:pagecheckerboard="0"
     inkscape:deskcolor="#d1d1d1"
     inkscape:zoom="2.3183594"
     inkscape:cx="256.21567"
     inkscape:cy="256"
     inkscape:window-width="2560"
     inkscape:window-height="1367"
     inkscape:window-x="1920"
     inkscape:window-y="0"
     inkscape:window-maximized="1"
     inkscape:current-layer="Layer_1" />
  <path
     d="M9.665,19.15l-.6,3.975a1,1,0,0,1-.988.85.97.97,0,0,1-.151-.012,1,1,0,0,1-.838-1.138l.6-3.975a1,1,0,1,1,1.977.3ZM21.048,8V23a1,1,0,0,1-2,0V12h-3a1,1,0,0,1-.895-.553l-.637-1.275-.459,2.52a1,1,0,0,1-.983.821,1.114,1.114,0,0,1-.18-.016,1,1,0,0,1-.8-1.164l.788-4.324c-.023,0-.044-.009-.066-.009h-1.93L9.9,13.36a1,1,0,0,0,.436,1.042l4.252,2.759a1,1,0,0,1,.455.839v5a1,1,0,0,1-2,0V18.543l-3.8-2.463a3,3,0,0,1-.743-.694A3.3,3.3,0,0,1,6.537,16c-1.671,0-3.47-1.252-3.47-4,0-3.364,3.037-6,6.914-6h2.831A2.984,2.984,0,0,1,15.5,7.658L16.666,10h2.382V8a1,1,0,0,1,2,0ZM7.977,12.793l.851-4.676C6.832,8.508,5.067,9.9,5.067,12c0,1.9,1.225,2,1.47,2A1.491,1.491,0,0,0,7.977,12.793ZM13.048,5a2.5,2.5,0,1,0-2.5-2.5A2.5,2.5,0,0,0,13.048,5Z"
     id="path1" />
  <path
     style="fill:#ffffff;stroke-width:0"
     d="m 295.2519,511.31354 c -5.08055,-0.98489 -11.16081,-5.44051 -13.91543,-10.19724 -2.85483,-4.92978 -2.66606,-1.28296 -2.90537,-56.12667 l -0.21712,-49.75679 -14.66554,-9.50364 c -8.06605,-5.227 -26.50581,-17.17375 -40.97725,-26.54833 -14.47144,-9.37459 -27.86453,-18.25378 -29.76243,-19.73154 -3.39009,-2.63964 -7.99564,-7.18442 -10.21624,-10.08146 l -1.12641,-1.46953 -3.17113,2.04375 c -6.85544,4.41824 -15.51391,7.93181 -24.19936,9.82 -3.80177,0.8265 -5.74959,0.96347 -13.91028,0.97817 -10.61648,0.0191 -13.62347,-0.39314 -22.11808,-3.03238 -29.387152,-9.13048 -48.644942,-35.34029 -51.893487,-70.62692 -0.636199,-6.91058 -0.285264,-21.72064 0.661185,-27.9032 7.719139,-50.42429 47.110352,-90.88095 102.681472,-105.45879 6.69735,-1.7569 12.81041,-2.94545 21.55916,-4.19168 6.1729,-0.87932 8.39247,-0.93051 47.1407,-1.08736 39.08533,-0.1582 40.85907,-0.13116 45.72199,0.69707 9.14889,1.5582 17.12486,4.71406 24.87671,9.843 5.77641,3.82191 13.77953,11.79528 17.44543,17.38057 1.52774,2.32763 8.39427,15.60335 15.89584,30.73294 l 13.20631,26.63522 h 25.58746 25.58746 l 0.0249,-22.75316 c 0.0219,-20.06635 0.11236,-23.08837 0.76589,-25.59189 2.05587,-7.87556 9.05939,-14.18721 17.24181,-15.53851 10.42827,-1.72219 21.0983,5.53992 23.57453,16.04502 0.57487,2.4388 0.65217,21.77728 0.6578,164.56484 0.004,105.92604 -0.1424,162.60362 -0.42445,164.12468 -1.55749,8.39961 -9.01694,15.54873 -17.61178,16.87908 -10.60394,1.64134 -21.0669,-5.50973 -23.5645,-16.10551 -0.57261,-2.42923 -0.65219,-17.07184 -0.6578,-121.03661 l -0.006,-118.27306 -33.75232,-0.13938 c -33.50893,-0.13838 -33.77276,-0.14627 -36.58713,-1.09379 -3.57703,-1.20429 -7.49778,-3.72299 -9.62224,-6.18137 -1.00276,-1.16036 -4.59864,-7.79374 -9.21539,-16.99975 -6.53142,-13.02395 -7.61863,-14.94882 -7.918,-14.01854 -0.19086,0.5931 -2.50784,13.01567 -5.14884,27.60573 -2.64099,14.59006 -5.17135,27.5822 -5.62302,28.87143 -2.87973,8.21979 -10.90326,13.83118 -19.7767,13.83118 -5.85235,0 -10.75814,-2.08828 -14.97748,-6.37556 -4.07839,-4.14408 -6.67168,-11.31612 -5.94307,-16.43621 0.15577,-1.09464 4.04577,-22.64779 8.64443,-47.89589 4.59866,-25.2481 8.36121,-46.06562 8.36121,-46.26116 0,-0.19554 -9.70514,-0.35552 -21.56698,-0.35552 -14.91936,0 -21.56697,0.14108 -21.56697,0.45773 0,0.25175 -4.75552,26.30499 -10.56782,57.89608 -7.89243,42.89702 -10.56782,58.27599 -10.56782,60.74704 0,5.51644 2.10531,10.71503 5.97262,14.74805 0.8667,0.90384 22.73303,15.3614 48.59183,32.12792 49.80232,32.2912 50.53498,32.81206 52.93327,37.63154 2.60819,5.24129 2.49386,2.36337 2.49386,62.77554 0,34.96872 -0.15828,56.13124 -0.43082,57.60103 -0.23695,1.27787 -1.11076,3.7099 -1.9418,5.4045 -4.15686,8.4764 -13.67867,13.15111 -23.07641,11.32933 z M 146.13894,298.01922 c 10.26896,-2.26049 19.43082,-10.43762 22.91522,-20.45224 0.73778,-2.12048 4.29109,-20.6595 10.31351,-53.80961 9.12375,-50.22131 9.18107,-50.57456 8.20585,-50.57456 -0.54014,0 -3.56228,0.66319 -6.71587,1.47375 -30.77692,7.91055 -55.10944,26.30244 -66.08497,49.95074 -4.49995,9.69578 -6.27484,17.56478 -6.59434,29.236 -0.33705,12.31271 1.14175,20.72961 4.97686,28.32692 6.27386,12.42845 19.5477,18.80666 32.98374,15.849 z"
     id="path2"
     transform="scale(0.046875)" />
  <path
     style="fill:#ffffff;stroke-width:0"
     d="m 269.33776,105.65584 c -19.59269,-3.54797 -35.61745,-17.599492 -41.57374,-36.454485 -3.29393,-10.427132 -3.20914,-22.218238 0.23369,-32.494374 2.75095,-8.211034 7.35059,-15.417593 13.81555,-21.645729 16.25292,-15.65752826 40.4721,-19.2583463 60.56672,-9.0048346 14.16214,7.2264006 24.2869,20.3494756 27.91642,36.1835176 1.23505,5.387979 1.31601,16.09062 0.16175,21.382643 -2.24875,10.309972 -6.71257,18.811799 -13.73752,26.16455 -8.08803,8.46543 -18.19803,13.911062 -29.44852,15.862092 -4.72455,0.81932 -13.4287,0.82253 -17.93435,0.007 z"
     id="path3"
     transform="scale(0.046875)" />
  <path
     style="fill:#ffffff;stroke-width:0"
     d="m 168.65375,510.93199 c -4.83284,-1.06691 -8.40528,-3.08164 -11.76701,-6.63618 -3.46224,-3.6608 -5.70224,-9.03347 -5.70224,-13.67687 0,-1.88124 12.37611,-84.97978 13.42186,-90.1202 1.01127,-4.97087 5.3646,-11.0947 9.68927,-13.62989 8.34305,-4.89083 18.8363,-3.58521 25.60774,3.18623 4.31273,4.31273 6.91387,11.14905 6.27137,16.48241 -1.02753,8.52942 -13.27743,88.18948 -13.82985,89.93429 -1.97242,6.22988 -7.09417,11.43808 -13.37381,13.59957 -2.93389,1.00985 -7.802,1.41594 -10.31733,0.86064 z"
     id="path4"
     transform="scale(0.046875)" />
</svg>
