<?xml version="1.0" encoding="UTF-8" standalone="no"?>
<svg
   id="Layer_1"
   data-name="Layer 1"
   viewBox="0 0 24 24"
   version="1.1"
   sodipodi:docname="mountain.svg"
   inkscape:version="1.4.2 (ebf0e940d0, 2025-05-08)"
   xmlns:inkscape="http://www.inkscape.org/namespaces/inkscape"
   xmlns:sodipodi="http://sodipodi.sourceforge.net/DTD/sodipodi-0.dtd"
   xmlns="http://www.w3.org/2000/svg"
   xmlns:svg="http://www.w3.org/2000/svg">
  <defs
     id="defs1" />
  <sodipodi:namedview
     id="namedview1"
     pagecolor="#ffffff"
     bordercolor="#000000"
     borderopacity="0.25"
     inkscape:showpageshadow="2"
     inkscape:pageopacity="0.0"
     inkscape:pagecheckerboard="0"
     inkscape:deskcolor="#d1d1d1"
     inkscape:zoom="49.458333"
     inkscape:cx="11.98989"
     inkscape:cy="12"
     inkscape:window-width="2560"
     inkscape:window-height="1367"
     inkscape:window-x="1920"
     inkscape:window-y="0"
     inkscape:window-maximized="1"
     inkscape:current-layer="Layer_1" />
  <path
     d="m23.625,19.29L14.476,1.493c-.488-.921-1.437-1.493-2.476-1.493s-1.988.572-2.481,1.503L.377,19.285c-.535,1.016-.501,2.208.091,3.192.591.981,1.626,1.567,2.769,1.567h17.524c1.143,0,2.178-.586,2.769-1.567.594-.986.626-2.182.093-3.188ZM11.292,2.428c.205-.387.563-.428.708-.428s.504.042.703.417l3.575,6.954-1.475,2.521-.947-1.563c-.18-.297-.501-.479-.849-.482h-.007c-.345,0-.665.177-.848.47l-1.625,2.7-2.579-4.084,3.344-6.504Zm10.526,19.018c-.229.38-.614.599-1.056.599H3.238c-.442,0-.827-.218-1.056-.599-.232-.385-.244-.834-.034-1.231.002-.003.004-.007.005-.011l4.732-9.206,1.95,3.087c.362.573.982.915,1.659.915h.005c.679-.001,1.3-.347,1.66-.922l.827-1.323.198.328c.349.576.948.87,1.633.913.674-.005,1.279-.355,1.62-.937l.924-1.578,4.49,8.735c.21.397.198.846-.034,1.231Z"
     id="path1" />
  <path
     style="fill:#ffffff;stroke-width:0"
     d="M 2.768562,23.999393 C 2.0404375,23.88588 1.4310527,23.568174 0.91783993,23.034506 -0.00937951,22.070335 -0.24949761,20.648539 0.31259602,19.450716 0.35956181,19.350632 2.4657837,15.247289 4.993089,10.332176 7.9680178,4.5465234 9.6319544,1.3313594 9.7123141,1.213389 9.961551,0.84750308 10.381531,0.48780352 10.786858,0.29307635 11.202196,0.09353947 11.524001,0.02149931 12,0.02149931 c 0.366742,0 0.528164,0.02369016 0.849006,0.12459964 0.560956,0.17642866 1.109222,0.58321159 1.439023,1.06767465 0.07427,0.109105 0.559386,1.0287177 1.205246,2.2847515 6.23701,12.1293949 8.14021,15.8348659 8.203731,15.9724099 0.197327,0.427288 0.284447,0.836171 0.284475,1.33516 2.1e-5,0.32751 -0.0217,0.497785 -0.10309,0.808058 -0.213584,0.814245 -0.753018,1.534063 -1.475695,1.969153 -0.350914,0.211269 -0.827721,0.374139 -1.243471,0.424755 -0.129622,0.01578 -2.776157,0.02161 -9.199663,0.02025 -7.4175948,-0.0016 -9.0484435,-0.0067 -9.191,-0.02892 z m 18.294695,-1.98094 c 0.339023,-0.07993 0.657513,-0.338659 0.80881,-0.657038 0.04492,-0.09452 0.09319,-0.221904 0.107262,-0.283066 0.03562,-0.154799 0.03084,-0.429879 -0.0102,-0.586352 -0.03977,-0.151667 -0.08801,-0.24684 -2.694402,-5.316208 -1.043056,-2.028717 -1.905563,-3.686721 -1.916684,-3.684454 -0.01112,0.0023 -0.237006,0.374678 -0.501969,0.827581 -0.52141,0.891249 -0.528971,0.902892 -0.71023,1.093671 -0.221518,0.233151 -0.49716,0.399042 -0.831519,0.500435 -0.15866,0.04811 -0.214456,0.05475 -0.463442,0.05513 -0.243804,3.71e-4 -0.311112,-0.0071 -0.485257,-0.05362 -0.406449,-0.108663 -0.796555,-0.34807 -1.014283,-0.622462 -0.0565,-0.07121 -0.159689,-0.222731 -0.229301,-0.336715 -0.06961,-0.113985 -0.132185,-0.206901 -0.139049,-0.20648 -0.0069,4.21e-4 -0.162607,0.243238 -0.346095,0.539593 -0.513398,0.829199 -0.623992,0.989631 -0.792484,1.149615 -0.190143,0.180539 -0.295276,0.252755 -0.529474,0.363696 -0.279333,0.132321 -0.490176,0.178026 -0.82126,0.178026 -0.349675,0 -0.5513257,-0.04671 -0.8593096,-0.199031 C 9.3928436,14.661313 9.2063606,14.519982 9.0357788,14.327112 8.974354,14.257661 8.484813,13.504802 7.9151519,12.603714 c -0.5563546,-0.880041 -1.0196478,-1.5996 -1.0295402,-1.59902 -0.022462,0.0013 -4.7491824,9.189556 -4.8129594,9.355879 -0.1769492,0.461465 -0.066154,0.964345 0.292295,1.326678 0.1669312,0.168738 0.3572607,0.280475 0.5625347,0.330244 0.1796496,0.04356 17.951121,0.0445 18.135775,9.58e-4 z m -9.6753,-10.408525 c 0.874315,-1.453908 0.908552,-1.502657 1.143114,-1.6276774 0.309384,-0.1649 0.630159,-0.1649 0.939543,0 0.219659,0.1170764 0.291109,0.2120114 0.824247,1.0951554 0.272452,0.451318 0.501984,0.81851 0.510071,0.815983 0.0081,-0.0025 0.345809,-0.570801 0.750492,-1.262832 L 16.291211,9.3723193 16.205249,9.2051151 C 16.15797,9.1131526 15.357519,7.5548441 14.426469,5.7422072 13.495419,3.9295703 12.706293,2.4031439 12.672856,2.3501485 12.589598,2.2181912 12.452825,2.102751 12.316369,2.0492642 12.166451,1.9905004 11.867166,1.9844496 11.716933,2.0371451 11.5868,2.0827906 11.433399,2.199688 11.352208,2.31508 11.28306,2.4133567 7.9460826,8.8956087 7.9460826,8.9316564 c 0,0.011976 0.579752,0.9398186 1.2883378,2.0618716 1.1228756,1.778086 1.2916106,2.035621 1.3138206,2.005247 0.01402,-0.01917 0.391888,-0.644149 0.839716,-1.388847 z"
     id="path2" />
</svg>
