<?xml version="1.0" encoding="UTF-8" standalone="no"?>
<svg
   id="Layer_1"
   data-name="Layer 1"
   viewBox="0 0 24 24"
   version="1.1"
   sodipodi:docname="trees.svg"
   inkscape:version="1.4.2 (ebf0e940d0, 2025-05-08)"
   xmlns:inkscape="http://www.inkscape.org/namespaces/inkscape"
   xmlns:sodipodi="http://sodipodi.sourceforge.net/DTD/sodipodi-0.dtd"
   xmlns="http://www.w3.org/2000/svg"
   xmlns:svg="http://www.w3.org/2000/svg">
  <defs
     id="defs1" />
  <sodipodi:namedview
     id="namedview1"
     pagecolor="#ffffff"
     bordercolor="#000000"
     borderopacity="0.25"
     inkscape:showpageshadow="2"
     inkscape:pageopacity="0.0"
     inkscape:pagecheckerboard="0"
     inkscape:deskcolor="#d1d1d1"
     inkscape:zoom="49.458333"
     inkscape:cx="12"
     inkscape:cy="12"
     inkscape:window-width="2560"
     inkscape:window-height="1367"
     inkscape:window-x="1920"
     inkscape:window-y="0"
     inkscape:window-maximized="1"
     inkscape:current-layer="Layer_1" />
  <path
     d="m24.005,21l-3.478-6h2.384l-3.958-6h2.154L16.377.991c-.497-.63-1.266-.991-2.107-.991s-1.612.362-2.108.992l-.137.232-.147-.232c-.496-.631-1.265-.993-2.108-.993s-1.611.362-2.108.992L2.93,9h2.155l-3.958,6h2.383L.034,21h8.466v3h2v-3h3v3h2v-3h8.505ZM9.265,2.192c.233-.242.775-.242,1.009,0l.589.999-2.25,3.809h-2.181l2.833-4.808Zm-1.784,6.808h2.104l-2.638,4h-2.104l2.638-4Zm-3.976,10l2.318-4h2.188l-2.318,4h-2.188Zm7.977-6h-2.139l3.958-6h-2.369l2.833-4.808c.234-.242.775-.243,1.01,0l2.833,4.807h-2.369l3.958,6h-2.14l3.478,6h-12.53l3.477-6Z"
     id="path1" />
  <path
     style="fill:#ffffff;stroke-width:0;fill-opacity:1;stroke:none;stroke-opacity:1;stroke-dasharray:none"
     d="m 8.5021061,22.493728 v -1.49616 l -4.2233109,-0.0051 -4.22331094,-0.0051 1.72625954,-2.979472 c 0.9494429,-1.63871 1.7262596,-2.987573 1.7262596,-2.997473 0,-0.01031 -0.5007529,-0.018 -1.1727043,-0.018 -0.6449874,0 -1.1727043,-0.0054 -1.1727043,-0.01208 0,-0.0066 0.8775156,-1.342095 1.9500348,-2.967672 1.0725191,-1.625577 1.9560535,-2.971279 1.96341,-2.9904495 0.012557,-0.032723 -0.051809,-0.034855 -1.0519723,-0.034855 -0.6015506,0 -1.0624137,-0.00771 -1.0586081,-0.017716 0.00371,-0.00974 1.0667228,-1.812996 2.3622577,-4.0072269 L 7.683235,0.97290959 7.8652064,0.7886013 C 8.1386022,0.51169442 8.4670862,0.30323588 8.8357203,0.17270536 c 0.6887288,-0.24387361 1.4616677,-0.20765282 2.1046627,0.0986269 0.399152,0.19012885 0.765706,0.49220688 0.968631,0.79825074 0.0556,0.083857 0.106405,0.1527378 0.112894,0.1530682 0.0065,3.304e-4 0.05817,-0.070597 0.114849,-0.1576163 0.181738,-0.2790248 0.555348,-0.59311874 0.924743,-0.77743094 0.182702,-0.0911608 0.464973,-0.18526688 0.690697,-0.23027089 0.25223,-0.05028883 0.801444,-0.04972813 1.03803,0.0010598 0.569824,0.12232387 1.018441,0.35895531 1.382782,0.72937386 l 0.179748,0.1827472 2.363314,4.00336977 2.363315,4.0033699 -1.071464,0.01011 -1.071464,0.01011 1.970692,2.9875794 c 1.083882,1.643169 1.970693,2.991959 1.970693,2.997312 0,0.0054 -0.531821,0.01208 -1.181825,0.01495 l -1.181827,0.0052 1.734676,2.992418 1.734675,2.992418 -4.242824,0.0051 -4.242824,0.0051 v 1.49616 1.496162 H 14.507161 13.516428 V 22.493682 20.997473 H 12 10.483572 v 1.496209 1.496208 H 9.4928391 8.5021061 Z M 6.8542544,17.023361 C 7.4881213,15.928008 8.0097986,15.022869 8.0135371,15.01194 8.0179471,14.99905 7.6319852,14.99391 6.9138509,14.9973 l -1.1064842,0.0052 -1.1202896,1.930919 c -0.6161595,1.062005 -1.1382505,1.965038 -1.1602023,2.006739 l -0.039912,0.07582 1.1074035,-5.47e-4 1.1074033,-5.48e-4 z m 13.6594066,1.916824 c -0.0219,-0.0417 -0.802505,-1.390564 -1.734681,-2.997472 l -1.694867,-2.921652 1.056933,-0.0052 c 0.581313,-0.0029 1.056932,-0.01266 1.056932,-0.02173 0,-0.0091 -0.886394,-1.360055 -1.969764,-3.0021879 l -1.969764,-2.985695 1.18106,-0.00522 1.18106,-0.00522 -1.420796,-2.41071 c -1.102221,-1.870173 -1.436536,-2.4223322 -1.490993,-2.4625424 -0.224207,-0.1655525 -0.718576,-0.150332 -0.910482,0.028031 -0.04513,0.041949 -2.826063,4.7311459 -2.864368,4.8298928 -0.0077,0.019788 0.239421,0.026216 1.165876,0.030329 l 1.175616,0.00522 -1.972168,2.9894825 c -1.084693,1.644215 -1.9721682,2.992997 -1.9721682,2.997293 0,0.0043 0.4778572,0.01017 1.0619052,0.01305 l 1.061905,0.0052 -1.720055,2.968177 c -0.9460301,1.632497 -1.7251133,2.98136 -1.7312963,2.997473 -0.0098,0.02554 0.7933021,0.0293 6.2693443,0.0293 h 6.280585 z M 8.2695872,11.017882 C 8.9924179,9.9218511 9.5868576,9.0166079 9.5905644,9.0062307 9.5946808,8.9947073 9.1841861,8.9873631 8.5359832,8.9873631 H 7.4746621 L 6.1685999,10.967359 c -0.7183342,1.088998 -1.3115531,1.994306 -1.3182642,2.011795 -0.011002,0.02867 0.091945,0.03178 1.0464059,0.03166 l 1.058608,-1.43e-4 z M 9.7484573,5.1053075 C 10.363633,4.0655434 10.863653,3.1997374 10.859613,3.1812942 10.845061,3.1148557 10.275536,2.1718835 10.226816,2.1335604 10.02319,1.9733885 9.5556791,1.9650008 9.3344629,2.1175507 9.2818095,2.1538603 8.9621035,2.6812782 7.8724925,4.5293576 7.1054736,5.8302919 6.4645061,6.9197914 6.4481202,6.9504677 l -0.029793,0.055776 1.1058142,-0.00523 1.1058145,-0.00523 z"
     id="path2" />
</svg>
